<svg id="Capa_1" enable-background="new 0 0 512 512" height="512" viewBox="0 0 512 512" width="512" xmlns="http://www.w3.org/2000/svg"><g><path d="m177.507 109.212c-6.99 6.938-8.34 17.638-3.295 26.001l10.751 17.914c4.882 8.148 14.836 12.254 24.206 9.982l9.827-2.377c1.187-.288 2.271.367 2.496 1.123l2.769 9.388c2.707 9.134 11.383 15.514 21.099 15.514h21.525c9.703 0 18.375-6.375 21.096-15.521l2.771-9.378c.224-.762 1.301-1.412 2.479-1.128l9.836 2.379c9.367 2.268 19.323-1.834 24.209-9.975l10.748-17.908c5.047-8.383 3.692-19.08-3.293-26.013l-7.058-7.005c-.524-.524-.536-1.292-.005-1.819l7.062-7c6.987-6.934 8.341-17.631 3.301-26.001l-10.755-17.92c-4.886-8.142-14.842-12.242-24.203-9.977l-9.84 2.375c-1.185.283-2.258-.363-2.483-1.125l-2.775-9.392c-2.715-9.129-11.388-15.505-21.091-15.505h-21.525c-9.716 0-18.392 6.38-21.103 15.526l-2.762 9.366c-.227.764-1.309 1.414-2.491 1.129l-9.83-2.373c-9.372-2.271-19.329 1.834-24.206 9.975l-10.743 17.901c-5.057 8.383-3.707 19.083 3.291 26.027l7.051 6.984c.536.532.545 1.291.007 1.825zm21.144-23.031-7.056-6.989c-.45-.446-.542-1.005-.235-1.513l10.759-17.926c.415-.692 1.423-1.049 2.352-.821l9.839 2.375c11.489 2.774 23.067-3.769 26.364-14.903l2.762-9.363c.202-.682 1.029-1.197 1.923-1.197h21.525c.905 0 1.713.507 1.916 1.189l2.77 9.373c3.287 11.132 14.864 17.677 26.358 14.9l9.845-2.376c.924-.224 1.937.133 2.355.829l10.762 17.932c.296.492.204 1.053-.244 1.497l-7.062 7c-8.314 8.251-8.318 21.976.008 30.221l7.05 6.998c.452.448.544 1.01.241 1.514l-10.754 17.919c-.418.696-1.433 1.054-2.357.829l-9.848-2.382c-11.495-2.766-23.068 3.781-26.352 14.905l-2.766 9.358c-.208.699-1.016 1.206-1.921 1.206h-21.525c-.895 0-1.721-.514-1.92-1.184l-2.768-9.386c-3.296-11.132-15.18-17.589-26.366-14.897l-9.843 2.381c-.921.222-1.928-.13-2.347-.829l-10.766-17.939c-.295-.489-.203-1.048.245-1.493l7.062-7.004c8.322-8.253 8.303-21.968-.006-30.224z"/><path d="m256.12 136.377c19.014 0 35.077-16.064 35.077-35.078s-16.063-35.078-35.078-35.078-35.078 16.063-35.078 35.078 16.064 35.078 35.079 35.078zm-.001-50.155c8.032 0 15.078 7.045 15.078 15.078 0 8.032-7.046 15.077-15.078 15.078-8.032 0-15.078-7.045-15.078-15.078s7.046-15.078 15.078-15.078z"/><path d="m10 496.156h215.299c5.523 0 10-4.477 10-10v-49.693c0-38.553-31.365-69.917-69.917-69.917h-5.108c3.964-4.75 7.147-10.17 9.358-16.063h13.56c16.561 0 30.033-13.473 30.033-30.033v-11.158c0-52.7-42.875-95.575-95.576-95.575-52.7 0-95.575 42.875-95.575 95.575v11.158c0 16.561 13.473 30.033 30.033 30.033h13.556c2.212 5.893 5.396 11.313 9.36 16.063h-5.106c-38.552 0-69.917 31.365-69.917 69.917v49.693c0 5.523 4.477 10 10 10zm82.53-173.873c5.106 0 10.32-1.725 14.737-4.637 4.469 2.95 9.81 4.637 15.297 4.637h30.59v8.759c0 19.576-15.926 35.502-35.502 35.502-19.575 0-35.501-15.916-35.511-35.483v-8.778zm-9.578-20c3.431-15.94 17.897-27.56 34.146-27.888 16.706-.32 31.632 11.588 35.239 27.888h-29.772c-2.556 0-5.347-1.564-6.491-3.639-1.759-3.189-5.113-5.17-8.756-5.17-3.643 0-6.997 1.98-8.756 5.17-1.081 1.96-4.22 3.639-6.031 3.639zm48.281 84.263-6.555 18.905h-16.488l-6.555-18.905zm-31.175 89.61 9.342-50.706h14.07l9.342 50.706zm65.324-89.61c27.524 0 49.917 22.393 49.917 49.917v39.693h-21.148v-34.175c0-5.523-4.477-10-10-10s-10 4.477-10 10v34.175h-21.003l-11.04-59.923 10.294-29.687zm17.81-56.064h-10.033v-18.2-1.867h10.033c5.532 0 10.033 4.501 10.033 10.033s-4.501 10.034-10.033 10.034zm-131.085 0c-5.532 0-10.033-4.501-10.033-10.033s4.5-10.033 10.033-10.033h10.026c0 .808.007 20.066.007 20.066zm13.525-40.066h-13.525c-2.731 0-5.375.373-7.892 1.06 8.032-33.1 37.899-57.759 73.435-57.759 35.535 0 65.402 24.659 73.435 57.759-2.517-.687-5.161-1.06-7.893-1.06h-13.561c-8.054-21.506-29.011-36.067-51.979-36.067-22.856 0-44.029 14.635-52.02 36.067zm-45.632 146.047c0-27.524 22.393-49.917 49.917-49.917h10.549l10.294 29.688-11.04 59.922h-19.087v-34.175c0-5.523-4.477-10-10-10s-10 4.477-10 10v34.175h-20.633z"/><path d="m461.109 431.981c-5.523 0-10 4.477-10 10v34.175h-12.192c-5.523 0-10 4.477-10 10s4.477 10 10 10h63.083c5.523 0 10-4.477 10-10v-49.664c0-26.305-14.602-49.255-36.12-61.197 7.604-12.552 11.466-24.607 11.466-35.95v-35.167c0-21.801-16.095-39.912-37.024-43.069-4.352-19.451-21.755-34.033-42.5-34.033h-38.529c-37.038 0-67.938 30.9-67.938 67.938v39.749c0 13.027 5.926 28.811 11.38 40.582-21.471 11.955-36.034 34.878-36.034 61.147v49.664c0 5.523 4.477 10 10 10h64.175c5.523 0 10-4.477 10-10s-4.477-10-10-10h-13.284v-34.175c0-5.523-4.477-10-10-10s-10 4.477-10 10v34.175h-20.891v-39.664c0-27.541 22.406-49.946 49.946-49.946h8.902c1.018 20.521 18.032 36.904 38.802 36.904s37.783-16.383 38.801-36.904h8.759c27.26.059 50.09 22.631 50.09 49.946v39.664h-20.891v-34.175c-.001-5.523-4.478-10-10.001-10zm-66.759-28.531c-9.737 0-17.773-7.42-18.751-16.904h37.502c-.977 9.483-9.014 16.904-18.751 16.904zm35.247-72.408c0 19.576-15.931 35.502-35.512 35.502-19.576 0-35.502-15.926-35.502-35.502v-15.893c5.742-.878 11.053-3.287 15.432-6.89 5.598 4.607 12.72 7.261 20.32 7.261h35.262zm37.749 8.304c0 8.535-3.551 18.192-10.57 28.772-4.749-1.022-9.671-1.572-14.722-1.572h-.174c-.031 0-.061-.002-.091-.002h-5.072c8.036-9.63 12.881-22.009 12.881-35.502v-21.18c0-1.726-.081-3.492-.242-5.25-.469-5.15-4.788-9.092-9.958-9.092h-45.062c-4.87 0-9.218-2.91-11.077-7.413-1.545-3.742-5.194-6.183-9.242-6.184 0 0 0 0-.001 0-4.048 0-7.697 2.44-9.242 6.182-1.861 4.504-6.208 7.415-11.076 7.415h-4.915c-5.172 0-9.491 3.944-9.959 9.096-.16 1.762-.241 3.527-.241 5.246v21.18c0 13.493 4.844 25.872 12.879 35.502h-5.079c-5.061 0-10.058.538-14.94 1.604-6.384-13.505-10.087-25.644-10.087-33.384v-39.749c0-26.134 21.804-47.938 47.938-47.938h38.529c12.983 0 23.546 10.562 23.546 23.546 0 5.523 4.477 10 10 10h2.431c12.983 0 23.546 10.567 23.546 23.557z"/><path d="m356.664 88.183c-3.493 4.278-2.856 10.578 1.421 14.071 21.311 17.401 37.86 40.089 47.977 65.382l-11.038-5.882c-4.875-2.597-10.932-.751-13.528 4.122-2.597 4.874-.751 10.931 4.122 13.528l32.622 17.384c4.938 2.636 11.283.556 13.714-4.489l15.345-31.883c2.395-4.976.302-10.952-4.674-13.347s-10.952-.302-13.347 4.674l-4.386 9.113c-11.348-28.681-30.042-54.405-54.157-74.094-4.28-3.493-10.578-2.857-14.071 1.421z"/><path d="m141.504 86.761c-30.894 25.225-52.892 60.354-61.944 98.916-1.262 5.376 2.073 10.758 7.45 12.021.769.181 1.537.267 2.294.267 4.537 0 8.645-3.109 9.727-7.717 8.05-34.293 27.626-65.543 55.123-87.994 4.278-3.493 4.914-9.792 1.421-14.071-3.493-4.278-9.793-4.916-14.071-1.422z"/><path d="m386.783 479.627c-2.725 3.185-3.18 7.803-1.124 11.455 4.564 8.107 17.22 5.725 18.585-3.455.667-4.483-1.889-8.967-6.065-10.707-3.938-1.615-8.617-.542-11.396 2.707z"/></g></svg>